<?xml version="1.0" standalone="no"?>
<!DOCTYPE svg PUBLIC "-//W3C//DTD SVG 20010904//EN"
 "http://www.w3.org/TR/2001/REC-SVG-20010904/DTD/svg10.dtd">
<svg version="1.0" xmlns="http://www.w3.org/2000/svg"
 width="800.000000pt" height="800.000000pt" viewBox="0 0 800.000000 800.000000"
 preserveAspectRatio="xMidYMid meet">
<metadata>
Created by potrace 1.11, written by Peter Selinger 2001-2013
</metadata>
<g transform="translate(0.000000,800.000000) scale(0.100000,-0.100000)"
fill="#000000" stroke="none">
<path d="M2601 7823 c-1 -6 -9 -9 -20 -6 -28 7 -78 -23 -83 -49 -2 -13 -3 -67
-2 -120 1 -77 5 -103 21 -130 20 -34 24 -35 93 -29 8 0 21 16 29 34 8 17 19
35 25 39 8 6 8 8 0 8 -6 0 -10 17 -10 40 1 22 -3 40 -7 40 -6 0 -6 5 -1 13 8
10 10 59 5 115 -1 6 -7 12 -14 12 -8 0 -19 10 -25 23 -6 12 -11 17 -11 10z"/>
<path d="M2142 7689 c-5 -11 -11 -20 -15 -20 -21 2 -30 0 -24 -6 4 -3 -1 -12
-11 -19 -11 -9 -13 -13 -4 -14 8 0 10 -5 6 -12 -5 -8 -2 -9 11 -4 15 5 16 4 5
-8 -10 -12 -8 -21 8 -43 11 -15 22 -37 24 -48 2 -11 9 -19 16 -18 6 2 9 -4 6
-11 -3 -8 4 -19 16 -26 11 -6 18 -15 15 -20 -9 -15 37 -51 51 -39 8 7 13 6 16
-2 2 -7 14 -3 31 13 15 14 24 28 20 31 -3 4 -2 7 3 7 16 0 10 71 -7 83 -9 7
-14 17 -12 23 2 7 -3 18 -10 26 -8 8 -18 28 -22 46 -7 35 -51 76 -72 68 -7 -3
-13 -1 -13 4 0 19 -31 10 -38 -11z"/>
<path d="M1815 7426 c-13 -13 -27 -21 -31 -17 -4 3 -4 -4 -1 -16 3 -13 1 -26
-4 -29 -6 -3 -5 -11 2 -20 6 -8 8 -14 3 -14 -5 0 4 -11 20 -25 17 -14 36 -23
43 -20 8 2 11 0 8 -5 -3 -6 3 -10 14 -10 12 0 21 -4 21 -9 0 -11 51 -41 106
-63 40 -16 41 -16 69 8 15 13 31 24 34 24 16 0 6 65 -12 87 -23 26 -82 60 -71
40 4 -7 -8 2 -27 18 -33 30 -96 64 -132 71 -10 2 -29 -7 -42 -20z"/>
<path d="M5648 7373 c-6 -14 -128 -74 -138 -68 -6 3 -10 1 -10 -5 0 -6 -4 -8
-10 -5 -6 4 -7 -1 -3 -11 5 -14 2 -16 -16 -11 -15 4 -30 -2 -49 -20 -15 -14
-43 -37 -62 -52 -40 -30 -87 -70 -142 -123 -22 -20 -42 -38 -46 -39 -14 -5
-99 -98 -94 -104 3 -3 0 -5 -6 -5 -7 0 -12 -7 -12 -16 0 -8 -4 -12 -10 -9 -5
3 -10 2 -10 -3 0 -5 -10 -14 -23 -21 -13 -7 -32 -27 -42 -44 -10 -17 -42 -56
-72 -86 -29 -30 -51 -57 -48 -59 6 -6 -17 -27 -39 -35 -11 -4 -16 -13 -12 -22
3 -8 1 -15 -4 -15 -5 0 -12 -9 -15 -20 -4 -11 -10 -18 -15 -15 -5 3 -17 -9
-26 -27 -9 -18 -32 -53 -52 -78 -58 -73 -59 -75 -42 -65 15 9 -14 -31 -37 -50
-18 -15 -63 -107 -57 -117 3 -4 0 -8 -7 -8 -7 0 -10 -3 -6 -6 7 -8 -37 -70
-73 -101 -14 -13 -34 -24 -45 -25 -74 -5 -126 -4 -131 3 -3 5 -13 3 -24 -3
-13 -9 -28 -9 -53 -1 -24 7 -39 7 -45 1 -7 -7 -20 -7 -40 0 -16 5 -35 6 -43 2
-7 -5 -16 -7 -20 -5 -3 3 -20 0 -37 -4 -17 -5 -46 -6 -65 -1 -19 4 -41 4 -48
-1 -7 -4 -18 -5 -23 -2 -14 9 -57 10 -62 2 -2 -4 -18 -4 -34 1 -19 5 -28 5
-25 -1 4 -5 1 -9 -4 -9 -6 0 -11 6 -11 13 0 8 -2 9 -8 1 -13 -20 -122 -4 -122
18 0 6 -17 30 -37 53 -53 59 -107 126 -112 139 -2 6 -9 14 -14 18 -6 3 -12 14
-13 24 -2 10 -10 21 -18 26 -9 5 -16 15 -16 23 0 8 -15 31 -32 52 -18 20 -26
33 -18 28 8 -4 -2 8 -23 28 -20 20 -41 44 -45 55 -8 22 -55 84 -94 124 -14 16
-24 28 -22 28 5 0 -10 20 -42 55 -12 13 -24 35 -28 50 -4 14 -15 29 -25 33
-11 4 -44 35 -75 70 -31 34 -56 59 -56 55 0 -4 -22 16 -50 45 -27 29 -50 57
-50 62 0 6 -4 10 -9 10 -17 0 -74 57 -67 68 4 7 -1 10 -14 7 -11 -2 -20 0 -20
4 0 13 -119 83 -130 76 -5 -3 -10 -2 -10 3 0 17 -29 22 -43 8 -7 -8 -14 -35
-16 -62 -1 -27 -6 -66 -12 -86 -5 -20 -11 -60 -13 -88 -4 -58 -27 -93 -48 -72
-7 7 -20 12 -30 12 -10 0 -18 3 -18 8 0 4 -24 18 -53 32 -28 13 -58 31 -64 39
-9 10 -13 11 -13 2 0 -7 -4 -9 -10 -6 -5 3 -10 -3 -10 -14 0 -12 -5 -21 -12
-21 -6 0 -9 -2 -6 -5 3 -3 -1 -31 -9 -63 -8 -31 -16 -77 -18 -102 -2 -25 -5
-64 -7 -87 -2 -24 -6 -43 -9 -43 -3 0 -6 -20 -5 -44 1 -24 -1 -43 -5 -41 -3 2
-6 -35 -8 -83 -2 -124 -10 -317 -14 -382 -2 -30 0 -67 4 -82 4 -16 4 -28 -1
-28 -5 0 -6 -16 -4 -36 2 -20 0 -42 -6 -49 -6 -8 -7 -16 -2 -19 5 -3 8 -48 8
-101 -1 -52 2 -95 7 -95 4 0 5 -5 1 -11 -3 -6 -6 -32 -5 -58 2 -25 3 -67 4
-93 1 -25 5 -49 8 -52 4 -4 5 -21 3 -38 -2 -17 2 -38 9 -46 10 -13 9 -14 -2
-7 -10 6 -12 4 -6 -5 11 -18 13 -60 3 -54 -8 5 -10 -12 -11 -66 0 -14 -7 -29
-15 -34 -12 -7 -12 -10 -1 -17 11 -7 11 -9 1 -9 -7 0 -10 -4 -7 -10 3 -5 1
-10 -5 -10 -6 0 -8 -4 -5 -10 3 -5 2 -10 -4 -10 -5 0 -8 -9 -6 -20 2 -11 0
-18 -6 -15 -5 4 -9 -5 -9 -19 0 -14 -4 -26 -10 -26 -5 0 -10 -11 -10 -24 0
-14 -7 -31 -15 -40 -8 -8 -15 -23 -15 -33 0 -11 -6 -25 -12 -32 -11 -11 -10
-12 2 -6 9 5 7 -1 -5 -14 -11 -13 -19 -25 -17 -27 6 -8 -9 -64 -17 -64 -5 0
-7 -10 -7 -22 1 -13 -6 -39 -15 -59 -10 -20 -15 -46 -12 -58 3 -12 1 -21 -6
-21 -7 0 -9 -4 -6 -10 3 -5 1 -10 -4 -10 -6 0 -10 -3 -9 -7 1 -5 -2 -24 -5
-43 -4 -19 -9 -52 -11 -72 -3 -21 -7 -41 -10 -46 -16 -26 -31 -562 -15 -562 3
0 6 -24 6 -52 -1 -52 5 -88 18 -108 3 -6 2 -10 -4 -10 -6 0 -4 -14 4 -33 9
-23 11 -37 4 -44 -7 -7 -5 -15 5 -26 9 -9 16 -29 16 -46 0 -20 8 -36 26 -50
15 -12 24 -21 20 -21 -10 0 25 -63 43 -78 14 -11 14 -14 -8 -32 -13 -11 -29
-20 -37 -20 -7 0 -16 -16 -20 -36 -5 -30 -3 -38 17 -52 32 -23 70 -25 85 -4 7
9 18 17 26 17 7 1 12 7 10 15 -3 13 25 -9 78 -60 8 -8 24 -20 35 -26 11 -6 27
-23 35 -38 14 -26 14 -29 -11 -49 -18 -16 -26 -33 -28 -62 -2 -35 2 -43 23
-55 22 -11 30 -11 53 1 14 8 28 22 31 31 2 10 13 20 23 23 10 4 19 11 19 16 0
17 22 9 84 -29 34 -20 66 -38 71 -38 22 -2 55 -17 55 -25 0 -4 17 -11 38 -15
20 -4 49 -15 63 -25 14 -10 29 -15 33 -11 4 3 10 2 14 -3 7 -11 87 -34 132
-40 13 -1 26 -7 27 -12 2 -5 19 -8 39 -7 38 3 52 -13 38 -43 -4 -10 -6 -22 -5
-27 1 -5 -6 -17 -15 -27 -13 -15 -14 -19 -3 -19 12 0 12 -2 0 -9 -8 -5 -16
-15 -17 -23 -2 -7 -10 -40 -18 -73 -8 -33 -12 -63 -10 -67 2 -3 -1 -10 -7 -14
-8 -5 -9 -3 -4 7 5 8 4 11 0 6 -5 -4 -10 -29 -11 -57 -1 -27 -6 -55 -10 -61
-4 -7 -9 -28 -11 -48 -7 -81 -11 -107 -18 -123 -4 -11 -3 -18 5 -18 6 0 8 -5
3 -13 -4 -6 -9 -25 -10 -42 0 -16 -2 -30 -3 -30 -1 0 -4 -34 -6 -75 -1 -41 -5
-86 -7 -100 -2 -14 -1 -29 2 -35 3 -5 7 -53 8 -105 3 -82 8 -135 13 -135 2 0
9 -35 14 -72 2 -17 9 -39 14 -50 5 -10 9 -29 8 -43 -1 -14 2 -27 5 -30 4 -3 9
-23 11 -44 3 -39 2 -40 -42 -56 -59 -21 -158 -85 -193 -124 -15 -17 -35 -38
-42 -47 -8 -9 -15 -23 -15 -32 0 -10 -4 -17 -10 -17 -5 0 -10 -7 -10 -15 0 -8
-5 -15 -11 -15 -5 0 -7 -4 -4 -10 3 -5 1 -18 -4 -29 -6 -10 -12 -40 -15 -65
-2 -26 -6 -49 -9 -52 -3 -3 -1 -19 3 -35 5 -17 5 -31 -1 -35 -6 -3 -3 -11 6
-18 9 -6 15 -16 14 -21 -1 -6 3 -22 9 -37 6 -15 9 -35 6 -43 -4 -9 1 -24 10
-34 9 -10 13 -21 10 -24 -4 -4 4 -16 17 -28 13 -11 18 -18 12 -14 -21 10 -15
-10 12 -41 14 -16 25 -32 25 -36 0 -4 10 -17 23 -30 13 -13 26 -31 30 -40 3
-10 25 -31 48 -48 23 -16 38 -30 34 -30 -5 0 10 -18 33 -40 22 -22 40 -40 39
-41 -16 -7 -37 -5 -37 4 0 8 -3 8 -9 -1 -4 -7 -17 -14 -29 -15 -12 0 -24 -7
-26 -14 -3 -7 -12 -13 -20 -13 -12 0 -30 -33 -27 -52 1 -5 -4 -8 -10 -8 -7 0
-9 -10 -4 -28 4 -15 8 -33 9 -40 1 -8 7 -17 12 -20 6 -4 13 -15 17 -24 6 -18
21 -22 64 -18 13 1 28 -2 35 -6 15 -9 89 -13 102 -6 6 3 27 6 48 7 27 2 38 -2
38 -12 0 -8 5 -11 10 -8 6 3 10 1 10 -5 0 -6 4 -9 9 -5 5 3 15 -1 23 -8 21
-21 131 -13 173 13 19 12 35 25 35 30 0 5 9 8 20 7 11 -1 20 -4 20 -7 0 -16
50 -60 69 -60 11 0 21 -4 21 -10 0 -8 33 -7 138 2 15 2 74 73 66 80 -3 3 2 8
11 12 9 3 13 2 10 -4 -5 -9 16 -15 38 -11 5 1 6 -3 3 -8 -4 -5 -2 -12 4 -16 5
-3 10 0 10 7 0 9 3 9 10 -2 5 -8 10 -12 10 -9 0 4 16 3 36 -1 40 -9 90 12 100
42 3 9 14 20 24 23 11 3 17 12 14 20 -3 7 0 16 6 20 8 5 8 11 -1 21 -13 16
-16 15 78 17 39 1 69 -1 66 -5 -2 -5 1 -8 6 -8 6 0 11 5 11 11 0 8 4 9 13 0 8
-6 17 -8 20 -4 4 3 15 -14 26 -38 19 -45 51 -79 74 -79 7 0 18 -5 23 -10 6 -6
32 -12 59 -14 38 -3 61 2 97 20 l47 24 17 -35 c9 -19 20 -33 24 -30 4 3 10 -4
13 -14 3 -13 12 -18 31 -16 14 2 26 -1 26 -6 0 -5 10 -5 24 1 16 6 26 5 28 -2
4 -11 118 11 115 22 -1 4 11 18 27 32 27 23 31 24 68 11 22 -7 48 -15 58 -16
11 -2 22 -6 25 -9 8 -8 50 5 89 25 20 11 35 13 46 7 10 -5 20 -7 23 -4 8 9 57
12 57 4 0 -10 82 -7 99 4 10 6 16 6 19 -2 2 -8 9 -8 25 1 36 20 50 37 54 65 9
60 9 67 0 80 -5 6 -7 12 -3 12 4 0 -1 11 -10 25 -9 14 -22 25 -29 25 -7 0 -15
4 -17 9 -3 9 -37 18 -75 20 -17 1 -4 31 13 31 8 0 18 8 21 17 8 20 21 37 41
56 31 28 49 47 82 87 19 23 43 51 53 61 9 11 14 19 10 19 -4 0 2 8 13 19 21
19 59 35 94 40 6 0 20 12 32 26 12 14 28 25 35 25 7 0 13 5 13 11 0 5 5 7 10
4 6 -3 13 1 16 9 3 9 10 13 15 10 5 -3 6 2 3 10 -3 9 -1 16 5 16 11 0 56 40
56 50 0 10 42 59 47 55 3 -3 10 13 17 35 7 22 16 38 21 35 5 -3 20 17 33 44
13 28 19 47 13 44 -6 -4 -3 2 6 13 9 10 18 26 20 34 2 8 9 21 16 28 11 12 14
28 15 88 1 12 6 20 13 17 7 -2 11 5 10 19 -1 13 2 29 7 36 5 6 6 12 2 12 -4 0
-2 7 5 15 10 12 10 15 -1 15 -10 0 -11 2 -2 8 14 9 36 122 34 175 0 21 4 47
10 58 5 11 7 25 2 32 -4 6 -8 57 -9 112 -1 55 -3 100 -4 100 -1 0 -4 20 -6 45
-4 53 -8 71 -15 85 -3 6 -5 25 -4 42 2 18 -1 31 -5 28 -5 -3 -6 4 -3 15 3 12
0 20 -6 20 -7 0 -10 4 -7 8 5 8 -9 42 -45 117 -22 45 -60 69 -80 51 -9 -8 -10
-8 -5 2 9 15 -43 8 -84 -11 -26 -13 -67 -77 -74 -118 -3 -13 -5 -26 -6 -29 -2
-3 -1 -9 0 -15 1 -5 4 -39 6 -75 6 -147 13 -231 19 -240 3 -6 2 -10 -3 -10 -6
0 -10 -28 -10 -62 -1 -56 -7 -134 -12 -148 -2 -3 -2 -8 -1 -12 0 -4 -4 -20
-11 -35 -6 -15 -13 -37 -15 -48 -2 -11 -5 -33 -8 -50 -3 -16 -7 -39 -9 -50 -1
-12 -15 -42 -30 -68 -15 -25 -27 -49 -27 -51 0 -3 -7 -19 -17 -35 -18 -32 -48
-46 -59 -29 -4 7 -1 8 8 4 8 -4 6 -1 -3 7 -10 8 -18 17 -18 20 0 9 -102 107
-111 107 -5 0 -9 6 -9 13 0 7 -10 13 -22 14 -11 1 -25 8 -29 15 -5 7 -9 9 -9
3 0 -5 -5 -4 -12 3 -7 7 -18 12 -26 12 -7 0 -20 7 -29 15 -8 8 -19 13 -23 10
-12 -7 -35 36 -24 44 5 3 11 15 12 26 2 11 7 21 11 23 5 1 6 14 3 27 -2 15 0
25 7 25 7 0 9 5 6 10 -3 6 -3 16 1 22 5 7 9 33 10 58 1 25 3 46 4 48 1 1 3 10
4 20 1 9 6 33 11 52 5 19 8 61 6 92 -1 31 3 66 8 77 7 11 7 22 2 25 -13 8 -9
76 3 76 7 0 6 3 -1 8 -6 4 -13 35 -15 70 -1 34 -6 62 -10 62 -4 0 -4 10 -1 22
9 36 7 56 -17 168 -11 58 -21 116 -22 130 0 14 -5 31 -11 38 -6 7 -12 25 -14
40 -5 48 -6 52 -15 52 -4 0 -8 5 -8 11 0 5 4 8 9 5 5 -4 1 12 -10 33 -10 22
-19 47 -19 55 0 8 -4 18 -10 21 -5 3 -10 22 -10 41 0 31 3 35 20 29 12 -4 20
-2 20 5 0 6 6 10 13 7 6 -2 28 2 49 9 20 7 39 10 42 7 3 -4 6 -1 6 6 0 8 8 11
20 8 11 -3 20 -1 20 3 0 5 9 7 20 5 11 -2 20 -1 20 3 0 4 9 8 19 9 10 1 41 11
67 23 26 13 53 23 60 24 7 1 18 7 25 13 26 20 76 42 83 36 3 -4 17 3 29 15 13
12 26 20 29 16 4 -3 11 4 18 15 14 27 29 26 65 -5 17 -14 23 -22 15 -18 -12 7
-12 4 2 -16 9 -14 21 -24 27 -23 6 2 11 -2 11 -9 0 -6 3 -8 6 -5 4 3 16 2 27
-4 13 -7 17 -8 13 -1 -4 6 0 14 7 19 21 12 28 45 14 69 -52 90 -50 80 -17 111
16 15 47 44 69 63 21 19 36 40 33 45 -3 6 5 2 18 -8 14 -9 35 -22 48 -29 12
-6 22 -15 22 -20 0 -5 8 -4 19 1 10 6 22 7 25 3 11 -10 29 28 31 65 1 28 -9
42 -30 43 -17 1 -41 37 -34 51 5 9 6 19 3 22 -3 2 6 14 20 25 15 11 26 24 26
29 0 6 9 20 20 33 12 13 18 30 15 38 -3 7 0 22 6 33 11 22 19 52 23 84 1 11 5
25 8 31 4 6 8 46 9 90 1 43 4 84 7 89 12 18 11 39 -1 54 -7 8 -7 12 -1 9 6 -4
10 6 11 28 1 19 -3 34 -8 34 -5 0 -4 11 1 25 5 14 6 25 2 25 -4 0 0 5 8 10 9
6 10 10 3 10 -6 0 -10 9 -8 20 2 11 0 20 -5 20 -6 0 -6 10 -1 23 11 30 14 120
4 114 -4 -3 -9 27 -10 66 -3 101 -6 127 -12 127 -3 0 -7 15 -8 33 -4 48 -6 57
-13 57 -4 0 -6 14 -5 30 1 17 -2 30 -7 30 -5 0 -6 5 -3 10 3 6 3 16 -2 23 -4
6 -9 21 -10 33 -2 11 -14 49 -28 84 -13 34 -22 66 -20 71 3 4 1 10 -4 14 -6 3
-8 12 -5 20 3 8 -6 26 -20 40 -14 14 -22 25 -18 25 4 0 8 9 9 20 1 11 -2 20
-8 20 -5 0 -9 6 -9 14 0 7 -7 19 -15 26 -9 7 -13 15 -10 18 3 3 0 11 -6 19 -6
7 -9 13 -5 13 4 0 -2 17 -12 38 -10 20 -18 44 -17 52 0 8 -5 21 -12 28 -7 8
-11 18 -8 23 4 5 2 9 -3 9 -4 0 -9 15 -9 33 -1 27 -6 59 -13 77 -1 3 -2 9 -1
13 1 4 3 22 6 40 3 18 8 48 11 67 3 19 7 49 8 65 1 17 5 35 9 42 4 7 2 22 -5
33 -10 15 -10 23 -2 28 6 4 11 21 10 39 0 17 -4 29 -8 26 -5 -2 -8 0 -8 6 0 5
4 12 9 15 5 3 7 15 4 27 -4 12 0 25 8 30 11 7 11 9 1 9 -9 0 -11 10 -7 34 4
18 3 36 -2 39 -5 3 -8 29 -7 59 3 108 4 184 1 235 -1 30 2 49 7 46 6 -4 6 1 1
13 -4 10 -10 60 -12 109 -2 50 -6 108 -8 130 -3 22 -6 73 -7 112 -2 40 -7 73
-11 73 -5 0 -6 4 -3 9 3 4 1 22 -4 40 -6 23 -6 30 3 24 7 -4 6 0 -2 10 -8 10
-11 27 -7 43 4 15 3 30 -2 33 -5 3 -13 35 -16 71 -4 36 -9 82 -11 102 -2 20
-9 46 -14 57 -8 14 -8 22 -1 26 8 5 8 11 1 19 -6 7 -8 16 -4 19 3 4 0 7 -8 7
-11 0 -11 2 1 10 8 5 10 10 5 10 -6 0 -12 10 -12 22 -1 13 -7 24 -13 26 -5 2
-7 8 -4 14 8 12 -16 88 -28 88 -4 0 -8 6 -8 14 0 10 -10 14 -29 14 -15 -1 -33
2 -39 6 -6 3 -12 3 -14 -1z"/>
</g>
</svg>
